pu03
version=1
nRows=6
nColumns=43
inDegrees=yes
endheader
time	pelvis_tilt	pelvis_list	pelvis_rotation	pelvis_tx	pelvis_ty	pelvis_tz	hip_flexion_r	hip_adduction_r	hip_rotation_r	knee_angle_r	ankle_angle_r	subtalar_angle_r	mtp_angle_r	hip_flexion_l	hip_adduction_l	hip_rotation_l	knee_angle_l	ankle_angle_l	subtalar_angle_l	mtp_angle_l	lumbar_extension	lumbar_bending	lumbar_rotation	neck_flexion	neck_lateral_bending	neck_rotation	arm_flex_r	arm_add_r	arm_rot_r	elbow_flex_r	pro_sup_r	wrist_flex_r	wrist_dev_r	hand_finger_flex_r	arm_flex_l	arm_add_l	arm_rot_l	elbow_flex_l	pro_sup_l	wrist_flex_l	wrist_dev_l	hand_finger_flex_l
      1.90750000	      2.08496057	     -2.28251328	    -91.73548257	      0.00563255	      1.15092441	      1.19465885	      9.59065106	     -6.78176681	     -7.12486822	    -23.69992572	    -14.08613934	     -7.91484539	    -11.93839700	      4.69598873	     -2.08202064	    -12.91343096	    -23.63339971	    -16.18663436	     -3.21453314	    -11.79051916	     27.78625059	     -6.11877911	      3.15676184	    -22.80761621	      9.65593977	      6.84131600	   -314.26127645	    -51.12210127	   -377.02594033	    117.79630595	    123.82257148	      2.30736284	      8.92118160	     73.74447350	     72.26310172	    -37.92789947	      6.71590628	    118.61292909	    145.16290538	      6.02549747	     21.84864464	     93.26261073
      1.91000000	      2.05646727	     -2.25543875	    -91.72498112	      0.00564229	      1.14841021	      1.19599018	      9.53777223	     -6.76176779	     -7.14245466	    -23.70307310	    -13.91530550	     -7.97642314	    -11.88994429	      4.64611832	     -2.09851214	    -12.87673654	    -23.72194020	    -16.16405555	     -3.21433284	    -11.78017923	     27.85518026	     -6.13644415	      3.15871729	    -22.94937929	      9.77187217	      6.83254298	   -313.52163464	    -51.30037574	   -376.68050468	    117.39317480	    123.84087623	      2.38342432	      8.93804265	     73.75365288	     73.03294418	    -37.69871937	      7.18984291	    117.99734323	    145.16181194	      6.12183509	     21.84080596	     93.21840648
      1.91250000	      2.04380552	     -2.22347823	    -91.71340271	      0.00538788	      1.14587724	      1.19735501	      9.49378623	     -6.73307515	     -7.16009878	    -23.75184041	    -13.48088918	     -8.08045147	    -11.76522752	      4.59891021	     -2.11856114	    -12.82167739	    -23.82748413	    -16.00893584	     -3.18950501	    -11.73943556	     27.93034154	     -6.20993414	      3.08776319	    -23.19235345	      9.91699955	      6.89016912	   -312.75552080	    -51.34589284	   -376.26673290	    116.95297123	    123.71883408	      2.56556220	      8.96847690	     73.80530123	     73.92949570	    -37.63383301	      7.69564089	    117.49643981	    145.14435462	      6.34357065	     21.88219223	     93.22605504
      1.91500000	      2.02907783	     -2.13673439	    -91.66677753	      0.00572180	      1.14337990	      1.19841729	      9.49745061	     -6.72889128	     -7.15290548	    -23.70529604	    -13.42208978	     -8.08737787	    -11.74586188	      4.57934358	     -2.11651077	    -12.82135650	    -23.83017987	    -16.00939378	     -3.17028282	    -11.73557996	     27.95019409	     -6.23064498	      3.08008396	    -23.23786286	      9.93074658	      6.91156540	   -312.16563717	    -51.59402531	   -376.23887685	    116.72217996	    123.71916928	      2.59542354	      8.98020097	     73.80551402	     74.51010279	    -37.30086467	      7.71437306	    117.35878973	    145.14878908	      6.36187809	     21.89032764	     93.21545088
      1.91750000	      2.01521782	     -2.11142639	    -91.64070749	      0.00565708	      1.14072734	      1.20004896	      9.46692055	     -6.75124512	     -7.19749086	    -23.92161579	    -12.38217466	     -8.02281125	    -11.29028349	      4.57299057	     -2.11761866	    -12.67380805	    -24.09814916	    -15.52013303	     -2.91132380	    -11.56861290	     28.10949515	     -6.26192303	      2.95059074	    -23.43428735	     10.03605046	      7.27042604	   -311.06027114	    -51.63326048	   -375.26123353	    116.03203942	    123.11430187	      3.18102446	      9.04876509	     73.97986683	     75.39496962	    -37.20743392	      8.26424603	    116.59367263	    145.05366011	      7.24259465	     22.28825607	     93.44980247
      1.92000000	      1.95988309	     -2.06043310	    -91.60363351	      0.00577899	      1.13827812	      1.20142940	      9.42660527	     -6.71517417	     -7.20028034	    -23.92460260	    -12.35085451	     -7.98613904	    -11.24478031	      4.53034230	     -2.15573361	    -12.65998474	    -24.15672443	    -15.54084860	     -2.89206587	    -11.55800158	     28.17850494	     -6.26647676	      2.94113815	    -23.49617754	     10.09072024	      7.25982642	   -310.44171362	    -51.91682334	   -374.94304803	    115.70161268	    123.14020173	      3.23107404	      9.05762056	     73.97225088	     76.13157007	    -36.89462306	      8.59067168	    116.09931077	    145.04753876	      7.33802248	     22.30215946	     93.42054629
